<svg width="40" height="40" viewBox="0 0 40 40" fill="none" xmlns="http://www.w3.org/2000/svg">
<path d="M30.37 28.3333C32.695 31.6467 33.8067 33.4117 33.145 34.8333C33.0783 34.9756 33.0006 35.1128 32.9117 35.245C31.9533 36.6667 29.4783 36.6667 24.5283 36.6667H15.4717C10.5217 36.6667 8.04834 36.6667 7.09 35.245C7.00257 35.1135 6.9246 34.9759 6.85667 34.8333C6.195 33.4133 7.30667 31.6467 9.63167 28.3333M24.1667 15C24.1667 16.1051 23.7277 17.1649 22.9463 17.9463C22.1649 18.7277 21.1051 19.1667 20 19.1667C18.8949 19.1667 17.8351 18.7277 17.0537 17.9463C16.2723 17.1649 15.8333 16.1051 15.8333 15C15.8333 13.8949 16.2723 12.8351 17.0537 12.0537C17.8351 11.2723 18.8949 10.8333 20 10.8333C21.1051 10.8333 22.1649 11.2723 22.9463 12.0537C23.7277 12.8351 24.1667 13.8949 24.1667 15Z" stroke="white" stroke-width="1.5" stroke-linecap="round" stroke-linejoin="round"/>
<path d="M22.095 29.1567C21.532 29.6983 20.7812 30.0009 20 30.0009C19.2188 30.0009 18.468 29.6983 17.905 29.1567C12.7567 24.1683 5.85833 18.5967 9.22167 10.5067C11.0433 6.13168 15.41 3.33334 20 3.33334C24.59 3.33334 28.9583 6.13334 30.7783 10.5067C34.1383 18.585 27.2567 24.185 22.095 29.1567Z" stroke="white" stroke-width="1.5" stroke-linecap="round" stroke-linejoin="round"/>
</svg>
